<mxfile host="app.diagrams.net" modified="2022-03-04T13:23:43.508Z" agent="5.0 (Windows NT 10.0; Win64; x64) AppleWebKit/537.36 (KHTML, like Gecko) Chrome/98.0.4758.102 Safari/537.36" etag="vEvMHVAEKKNf7hh0HwtJ" version="16.6.3" type="github">
  <diagram id="JLRwizd0aiW14icNrgI5" name="Page-1">
    <mxGraphModel dx="2750" dy="1777" grid="1" gridSize="10" guides="1" tooltips="1" connect="1" arrows="1" fold="1" page="1" pageScale="1" pageWidth="827" pageHeight="1169" math="0" shadow="0">
      <root>
        <mxCell id="0" />
        <mxCell id="1" parent="0" />
        <mxCell id="Sv-xLWwoJivy7uen40IY-1" value="&lt;font style=&quot;font-size: 10px&quot;&gt;CategoryDetail&lt;/font&gt;" style="rounded=1;arcSize=10;whiteSpace=wrap;html=1;align=center;strokeWidth=3;fillColor=#dae8fc;strokeColor=#6c8ebf;" vertex="1" parent="1">
          <mxGeometry x="-1360" y="-520" width="80" height="30" as="geometry" />
        </mxCell>
        <mxCell id="Sv-xLWwoJivy7uen40IY-2" value="&lt;font style=&quot;font-size: 10px&quot;&gt;Includs&lt;/font&gt;" style="rhombus;whiteSpace=wrap;html=1;strokeWidth=2;fillColor=#b0e3e6;strokeColor=#0e8088;" vertex="1" parent="1">
          <mxGeometry x="-1345" y="-160" width="50" height="37" as="geometry" />
        </mxCell>
        <mxCell id="Sv-xLWwoJivy7uen40IY-3" value="&lt;font style=&quot;font-size: 10px&quot;&gt;Has&lt;/font&gt;" style="rhombus;whiteSpace=wrap;html=1;strokeWidth=2;fillColor=#b0e3e6;strokeColor=#0e8088;" vertex="1" parent="1">
          <mxGeometry x="-1345" y="-400" width="50" height="37" as="geometry" />
        </mxCell>
        <mxCell id="Sv-xLWwoJivy7uen40IY-4" value="&lt;font style=&quot;font-size: 10px&quot;&gt;Has&lt;/font&gt;" style="rhombus;whiteSpace=wrap;html=1;strokeWidth=2;fillColor=#b0e3e6;strokeColor=#0e8088;" vertex="1" parent="1">
          <mxGeometry x="-1345" y="-640" width="50" height="37" as="geometry" />
        </mxCell>
        <mxCell id="Sv-xLWwoJivy7uen40IY-5" value="&lt;font style=&quot;font-size: 10px&quot;&gt;Includs&lt;/font&gt;" style="rhombus;whiteSpace=wrap;html=1;strokeWidth=2;fillColor=#b0e3e6;strokeColor=#0e8088;" vertex="1" parent="1">
          <mxGeometry x="-1345" y="80" width="50" height="37" as="geometry" />
        </mxCell>
        <mxCell id="Sv-xLWwoJivy7uen40IY-6" value="&lt;font style=&quot;font-size: 10px&quot;&gt;Sends&lt;/font&gt;" style="rhombus;whiteSpace=wrap;html=1;strokeWidth=2;fillColor=#b0e3e6;strokeColor=#0e8088;" vertex="1" parent="1">
          <mxGeometry x="-1345" y="320" width="50" height="37" as="geometry" />
        </mxCell>
        <mxCell id="Sv-xLWwoJivy7uen40IY-7" value="&lt;font style=&quot;font-size: 8px&quot;&gt;CustomerID&lt;/font&gt;" style="ellipse;whiteSpace=wrap;html=1;fontSize=10;strokeWidth=2;fillColor=#e6d0de;gradientColor=#d5739d;strokeColor=#996185;" vertex="1" parent="1">
          <mxGeometry x="-1220" y="233" width="50" height="31" as="geometry" />
        </mxCell>
        <mxCell id="Sv-xLWwoJivy7uen40IY-8" value="" style="shape=link;html=1;rounded=0;exitX=0.5;exitY=1;exitDx=0;exitDy=0;entryX=0.5;entryY=0;entryDx=0;entryDy=0;" edge="1" parent="1" source="Sv-xLWwoJivy7uen40IY-5" target="Sv-xLWwoJivy7uen40IY-18">
          <mxGeometry width="100" relative="1" as="geometry">
            <mxPoint x="-990" y="300" as="sourcePoint" />
            <mxPoint x="-1170" y="130" as="targetPoint" />
          </mxGeometry>
        </mxCell>
        <mxCell id="Sv-xLWwoJivy7uen40IY-9" value="" style="shape=link;html=1;rounded=0;entryX=0.5;entryY=1;entryDx=0;entryDy=0;exitX=0.5;exitY=0;exitDx=0;exitDy=0;" edge="1" parent="1" source="Sv-xLWwoJivy7uen40IY-6" target="Sv-xLWwoJivy7uen40IY-18">
          <mxGeometry width="100" relative="1" as="geometry">
            <mxPoint x="-1420" y="260" as="sourcePoint" />
            <mxPoint x="-1320" y="563" as="targetPoint" />
          </mxGeometry>
        </mxCell>
        <mxCell id="Sv-xLWwoJivy7uen40IY-10" value="" style="endArrow=none;html=1;rounded=0;exitX=0.5;exitY=1;exitDx=0;exitDy=0;entryX=0.5;entryY=0;entryDx=0;entryDy=0;" edge="1" parent="1" source="Sv-xLWwoJivy7uen40IY-6" target="Sv-xLWwoJivy7uen40IY-19">
          <mxGeometry width="50" height="50" relative="1" as="geometry">
            <mxPoint x="-710" y="530" as="sourcePoint" />
            <mxPoint x="-1430" y="310" as="targetPoint" />
          </mxGeometry>
        </mxCell>
        <mxCell id="Sv-xLWwoJivy7uen40IY-11" value="&lt;font style=&quot;font-size: 10px&quot;&gt;Place&lt;/font&gt;" style="rhombus;whiteSpace=wrap;html=1;strokeWidth=2;fillColor=#b0e3e6;strokeColor=#0e8088;" vertex="1" parent="1">
          <mxGeometry x="-1510" y="196" width="50" height="37" as="geometry" />
        </mxCell>
        <mxCell id="Sv-xLWwoJivy7uen40IY-12" value="" style="shape=link;html=1;rounded=0;entryX=0;entryY=0.5;entryDx=0;entryDy=0;exitX=1;exitY=0.5;exitDx=0;exitDy=0;" edge="1" parent="1" source="Sv-xLWwoJivy7uen40IY-11" target="Sv-xLWwoJivy7uen40IY-18">
          <mxGeometry width="100" relative="1" as="geometry">
            <mxPoint x="-1410" y="543" as="sourcePoint" />
            <mxPoint x="-1370" y="543" as="targetPoint" />
          </mxGeometry>
        </mxCell>
        <mxCell id="Sv-xLWwoJivy7uen40IY-13" value="" style="endArrow=none;html=1;rounded=0;exitX=1;exitY=0.5;exitDx=0;exitDy=0;entryX=0;entryY=0.5;entryDx=0;entryDy=0;" edge="1" parent="1" source="Sv-xLWwoJivy7uen40IY-17" target="Sv-xLWwoJivy7uen40IY-11">
          <mxGeometry width="50" height="50" relative="1" as="geometry">
            <mxPoint x="-1600" y="544.5" as="sourcePoint" />
            <mxPoint x="-1030" y="200" as="targetPoint" />
          </mxGeometry>
        </mxCell>
        <mxCell id="Sv-xLWwoJivy7uen40IY-14" value="&lt;font style=&quot;font-size: 10px&quot;&gt;Phone&lt;/font&gt;" style="ellipse;shape=doubleEllipse;margin=3;whiteSpace=wrap;html=1;align=center;fillColor=#cdeb8b;strokeColor=#36393d;strokeWidth=2;" vertex="1" parent="1">
          <mxGeometry x="-1800" y="305" width="50" height="30" as="geometry" />
        </mxCell>
        <mxCell id="Sv-xLWwoJivy7uen40IY-15" value="&lt;font style=&quot;font-size: 10px&quot;&gt;Category&lt;/font&gt;" style="rounded=1;arcSize=10;whiteSpace=wrap;html=1;align=center;strokeWidth=3;fillColor=#dae8fc;strokeColor=#6c8ebf;" vertex="1" parent="1">
          <mxGeometry x="-1360" y="-750" width="80" height="30" as="geometry" />
        </mxCell>
        <mxCell id="Sv-xLWwoJivy7uen40IY-16" value="&lt;font style=&quot;font-size: 10px&quot;&gt;OrderDetail&lt;/font&gt;" style="rounded=1;arcSize=10;whiteSpace=wrap;html=1;align=center;strokeWidth=3;fillColor=#dae8fc;strokeColor=#6c8ebf;" vertex="1" parent="1">
          <mxGeometry x="-1360" y="-30" width="80" height="30" as="geometry" />
        </mxCell>
        <mxCell id="Sv-xLWwoJivy7uen40IY-17" value="&lt;span style=&quot;font-size: 10px&quot;&gt;Customer&lt;/span&gt;" style="rounded=1;arcSize=10;whiteSpace=wrap;html=1;align=center;strokeWidth=3;fillColor=#dae8fc;strokeColor=#6c8ebf;" vertex="1" parent="1">
          <mxGeometry x="-1684" y="199.5" width="80" height="30" as="geometry" />
        </mxCell>
        <mxCell id="Sv-xLWwoJivy7uen40IY-18" value="&lt;span style=&quot;font-size: 10px&quot;&gt;Order&lt;/span&gt;" style="rounded=1;arcSize=10;whiteSpace=wrap;html=1;align=center;strokeWidth=3;fillColor=#dae8fc;strokeColor=#6c8ebf;" vertex="1" parent="1">
          <mxGeometry x="-1360" y="200" width="80" height="30" as="geometry" />
        </mxCell>
        <mxCell id="Sv-xLWwoJivy7uen40IY-19" value="&lt;span style=&quot;font-size: 10px&quot;&gt;Shipper&lt;/span&gt;" style="rounded=1;arcSize=10;whiteSpace=wrap;html=1;align=center;strokeWidth=3;fillColor=#dae8fc;strokeColor=#6c8ebf;" vertex="1" parent="1">
          <mxGeometry x="-1360" y="440" width="80" height="30" as="geometry" />
        </mxCell>
        <mxCell id="Sv-xLWwoJivy7uen40IY-20" value="&lt;font style=&quot;font-size: 8px&quot;&gt;ID&lt;/font&gt;" style="ellipse;whiteSpace=wrap;html=1;fontSize=10;strokeWidth=2;fillColor=#e6d0de;gradientColor=#d5739d;strokeColor=#996185;" vertex="1" parent="1">
          <mxGeometry x="-1220" y="202" width="50" height="31" as="geometry" />
        </mxCell>
        <mxCell id="Sv-xLWwoJivy7uen40IY-21" value="&lt;font style=&quot;font-size: 8px&quot;&gt;Date&lt;/font&gt;" style="ellipse;whiteSpace=wrap;html=1;fontSize=10;strokeWidth=2;fillColor=#e6d0de;gradientColor=#d5739d;strokeColor=#996185;" vertex="1" parent="1">
          <mxGeometry x="-1220" y="171" width="50" height="31" as="geometry" />
        </mxCell>
        <mxCell id="Sv-xLWwoJivy7uen40IY-22" value="&lt;font style=&quot;font-size: 8px&quot;&gt;ShipperID&lt;/font&gt;" style="ellipse;whiteSpace=wrap;html=1;fontSize=10;strokeWidth=2;fillColor=#e6d0de;gradientColor=#d5739d;strokeColor=#996185;" vertex="1" parent="1">
          <mxGeometry x="-1220" y="264" width="50" height="31" as="geometry" />
        </mxCell>
        <mxCell id="Sv-xLWwoJivy7uen40IY-23" value="&lt;font style=&quot;font-size: 8px&quot;&gt;Sum&lt;/font&gt;" style="ellipse;whiteSpace=wrap;html=1;fontSize=10;strokeWidth=2;fillColor=#e6d0de;gradientColor=#d5739d;strokeColor=#996185;" vertex="1" parent="1">
          <mxGeometry x="-1220" y="140" width="50" height="31" as="geometry" />
        </mxCell>
        <mxCell id="Sv-xLWwoJivy7uen40IY-24" value="&lt;font style=&quot;font-size: 8px&quot;&gt;Quantity&lt;/font&gt;" style="ellipse;whiteSpace=wrap;html=1;fontSize=10;strokeWidth=2;fillColor=#e6d0de;strokeColor=#996185;gradientColor=#d5739d;" vertex="1" parent="1">
          <mxGeometry x="-1230" y="-29" width="50" height="31" as="geometry" />
        </mxCell>
        <mxCell id="Sv-xLWwoJivy7uen40IY-25" value="&lt;font style=&quot;font-size: 8px&quot;&gt;ID&lt;/font&gt;" style="ellipse;whiteSpace=wrap;html=1;fontSize=10;strokeWidth=2;fillColor=#e6d0de;strokeColor=#996185;gradientColor=#d5739d;" vertex="1" parent="1">
          <mxGeometry x="-1230" y="2" width="50" height="31" as="geometry" />
        </mxCell>
        <mxCell id="Sv-xLWwoJivy7uen40IY-26" value="&lt;font style=&quot;font-size: 8px&quot;&gt;Sum&lt;/font&gt;" style="ellipse;whiteSpace=wrap;html=1;fontSize=10;strokeWidth=2;fillColor=#e6d0de;strokeColor=#996185;gradientColor=#d5739d;" vertex="1" parent="1">
          <mxGeometry x="-1230" y="-60" width="50" height="31" as="geometry" />
        </mxCell>
        <mxCell id="Sv-xLWwoJivy7uen40IY-27" value="&lt;font style=&quot;font-size: 8px&quot;&gt;Price&lt;/font&gt;" style="ellipse;whiteSpace=wrap;html=1;fontSize=10;strokeWidth=2;fillColor=#e6d0de;strokeColor=#996185;gradientColor=#d5739d;" vertex="1" parent="1">
          <mxGeometry x="-1230" y="-240" width="50" height="31" as="geometry" />
        </mxCell>
        <mxCell id="Sv-xLWwoJivy7uen40IY-28" value="&lt;font style=&quot;font-size: 8px&quot;&gt;Description&lt;/font&gt;" style="ellipse;whiteSpace=wrap;html=1;fontSize=10;strokeWidth=2;fillColor=#e6d0de;strokeColor=#996185;gradientColor=#d5739d;" vertex="1" parent="1">
          <mxGeometry x="-1230" y="-302" width="50" height="31" as="geometry" />
        </mxCell>
        <mxCell id="Sv-xLWwoJivy7uen40IY-29" value="&lt;font style=&quot;font-size: 8px&quot;&gt;Name&lt;/font&gt;" style="ellipse;whiteSpace=wrap;html=1;fontSize=10;strokeWidth=2;fillColor=#e6d0de;strokeColor=#996185;gradientColor=#d5739d;" vertex="1" parent="1">
          <mxGeometry x="-1230" y="-333" width="50" height="31" as="geometry" />
        </mxCell>
        <mxCell id="Sv-xLWwoJivy7uen40IY-30" value="&lt;font style=&quot;font-size: 8px&quot;&gt;ID&lt;/font&gt;" style="ellipse;whiteSpace=wrap;html=1;fontSize=10;strokeWidth=2;fillColor=#e6d0de;strokeColor=#996185;gradientColor=#d5739d;" vertex="1" parent="1">
          <mxGeometry x="-1230" y="-363" width="50" height="31" as="geometry" />
        </mxCell>
        <mxCell id="Sv-xLWwoJivy7uen40IY-31" value="&lt;font style=&quot;font-size: 8px&quot;&gt;ImageID&lt;/font&gt;" style="ellipse;whiteSpace=wrap;html=1;fontSize=10;strokeWidth=2;fillColor=#fff2cc;gradientColor=#ffd966;strokeColor=#d6b656;" vertex="1" parent="1">
          <mxGeometry x="-1120" y="-240" width="50" height="31" as="geometry" />
        </mxCell>
        <mxCell id="Sv-xLWwoJivy7uen40IY-32" value="&lt;font style=&quot;font-size: 8px&quot;&gt;Quantity&lt;/font&gt;" style="ellipse;whiteSpace=wrap;html=1;fontSize=10;strokeWidth=2;fillColor=#e6d0de;strokeColor=#996185;gradientColor=#d5739d;" vertex="1" parent="1">
          <mxGeometry x="-1230" y="-271" width="50" height="31" as="geometry" />
        </mxCell>
        <mxCell id="Sv-xLWwoJivy7uen40IY-33" value="&lt;font style=&quot;font-size: 8px&quot;&gt;Image&lt;/font&gt;" style="ellipse;whiteSpace=wrap;html=1;fontSize=10;strokeWidth=2;fillColor=#ffff88;strokeColor=#36393d;" vertex="1" parent="1">
          <mxGeometry x="-1230" y="-209" width="50" height="31" as="geometry" />
        </mxCell>
        <mxCell id="Sv-xLWwoJivy7uen40IY-34" value="&lt;font style=&quot;font-size: 8px&quot;&gt;ImageType&lt;/font&gt;" style="ellipse;whiteSpace=wrap;html=1;fontSize=10;strokeWidth=2;fillColor=#fff2cc;gradientColor=#ffd966;strokeColor=#d6b656;" vertex="1" parent="1">
          <mxGeometry x="-1120" y="-178" width="50" height="31" as="geometry" />
        </mxCell>
        <mxCell id="Sv-xLWwoJivy7uen40IY-35" value="&lt;font style=&quot;font-size: 8px&quot;&gt;ImageDate&lt;/font&gt;" style="ellipse;whiteSpace=wrap;html=1;fontSize=10;strokeWidth=2;fillColor=#fff2cc;gradientColor=#ffd966;strokeColor=#d6b656;" vertex="1" parent="1">
          <mxGeometry x="-1120" y="-209" width="50" height="31" as="geometry" />
        </mxCell>
        <mxCell id="Sv-xLWwoJivy7uen40IY-36" value="&lt;font style=&quot;font-size: 8px&quot;&gt;Name&lt;/font&gt;" style="ellipse;whiteSpace=wrap;html=1;fontSize=10;strokeWidth=2;fillColor=#e6d0de;strokeColor=#996185;gradientColor=#d5739d;" vertex="1" parent="1">
          <mxGeometry x="-1230" y="-520.5" width="50" height="31" as="geometry" />
        </mxCell>
        <mxCell id="Sv-xLWwoJivy7uen40IY-37" value="&lt;font style=&quot;font-size: 8px&quot;&gt;Name&lt;/font&gt;" style="ellipse;whiteSpace=wrap;html=1;fontSize=10;strokeWidth=2;fillColor=#e6d0de;strokeColor=#996185;gradientColor=#d5739d;" vertex="1" parent="1">
          <mxGeometry x="-1230" y="-735" width="50" height="31" as="geometry" />
        </mxCell>
        <mxCell id="Sv-xLWwoJivy7uen40IY-38" value="&lt;font style=&quot;font-size: 8px&quot;&gt;ID&lt;/font&gt;" style="ellipse;whiteSpace=wrap;html=1;fontSize=10;strokeWidth=2;fillColor=#e6d0de;strokeColor=#996185;gradientColor=#d5739d;" vertex="1" parent="1">
          <mxGeometry x="-1230" y="-766" width="50" height="30" as="geometry" />
        </mxCell>
        <mxCell id="Sv-xLWwoJivy7uen40IY-39" value="&lt;font style=&quot;font-size: 8px&quot;&gt;Info&lt;/font&gt;" style="ellipse;whiteSpace=wrap;html=1;fontSize=10;strokeWidth=2;fillColor=#e6d0de;gradientColor=#d5739d;strokeColor=#996185;" vertex="1" parent="1">
          <mxGeometry x="-1220" y="441" width="50" height="31" as="geometry" />
        </mxCell>
        <mxCell id="Sv-xLWwoJivy7uen40IY-40" value="&lt;font style=&quot;font-size: 8px&quot;&gt;Name&lt;/font&gt;" style="ellipse;whiteSpace=wrap;html=1;fontSize=10;strokeWidth=2;fillColor=#e6d0de;gradientColor=#d5739d;strokeColor=#996185;" vertex="1" parent="1">
          <mxGeometry x="-1220" y="410" width="50" height="31" as="geometry" />
        </mxCell>
        <mxCell id="Sv-xLWwoJivy7uen40IY-41" value="&lt;font style=&quot;font-size: 8px&quot;&gt;ID&lt;/font&gt;" style="ellipse;whiteSpace=wrap;html=1;fontSize=10;strokeWidth=2;fillColor=#e6d0de;gradientColor=#d5739d;strokeColor=#996185;" vertex="1" parent="1">
          <mxGeometry x="-1220" y="379" width="50" height="31" as="geometry" />
        </mxCell>
        <mxCell id="Sv-xLWwoJivy7uen40IY-42" value="&lt;font style=&quot;font-size: 8px&quot;&gt;LoginUser&lt;/font&gt;" style="ellipse;whiteSpace=wrap;html=1;fontSize=10;strokeWidth=2;fillColor=#e6d0de;gradientColor=#d5739d;strokeColor=#996185;" vertex="1" parent="1">
          <mxGeometry x="-1800" y="274" width="50" height="31" as="geometry" />
        </mxCell>
        <mxCell id="Sv-xLWwoJivy7uen40IY-43" value="&lt;font style=&quot;font-size: 8px&quot;&gt;&lt;u&gt;Email&lt;/u&gt;&lt;/font&gt;" style="ellipse;whiteSpace=wrap;html=1;fontSize=10;strokeWidth=2;fillColor=#d80073;fontColor=#ffffff;strokeColor=#A50040;" vertex="1" parent="1">
          <mxGeometry x="-1800" y="243" width="50" height="31" as="geometry" />
        </mxCell>
        <mxCell id="Sv-xLWwoJivy7uen40IY-44" value="&lt;font style=&quot;font-size: 8px&quot;&gt;lName&lt;/font&gt;" style="ellipse;whiteSpace=wrap;html=1;fontSize=10;strokeWidth=2;fillColor=#e6d0de;gradientColor=#d5739d;strokeColor=#996185;" vertex="1" parent="1">
          <mxGeometry x="-1800" y="212" width="50" height="31" as="geometry" />
        </mxCell>
        <mxCell id="Sv-xLWwoJivy7uen40IY-45" value="&lt;font style=&quot;font-size: 8px&quot;&gt;fName&lt;/font&gt;" style="ellipse;whiteSpace=wrap;html=1;fontSize=10;strokeWidth=2;fillColor=#e6d0de;gradientColor=#d5739d;strokeColor=#996185;" vertex="1" parent="1">
          <mxGeometry x="-1800" y="181" width="50" height="31" as="geometry" />
        </mxCell>
        <mxCell id="Sv-xLWwoJivy7uen40IY-46" value="&lt;font style=&quot;font-size: 8px&quot;&gt;&lt;u&gt;Password&lt;/u&gt;&lt;/font&gt;" style="ellipse;whiteSpace=wrap;html=1;fontSize=10;strokeWidth=2;fillColor=#d80073;fontColor=#ffffff;strokeColor=#A50040;" vertex="1" parent="1">
          <mxGeometry x="-1800" y="150" width="50" height="31" as="geometry" />
        </mxCell>
        <mxCell id="Sv-xLWwoJivy7uen40IY-47" value="&lt;font style=&quot;font-size: 8px&quot;&gt;&lt;u&gt;ID&lt;/u&gt;&lt;/font&gt;" style="ellipse;whiteSpace=wrap;html=1;fontSize=10;strokeWidth=2;fillColor=#d80073;fontColor=#ffffff;strokeColor=#A50040;" vertex="1" parent="1">
          <mxGeometry x="-1800" y="117" width="50" height="31" as="geometry" />
        </mxCell>
        <mxCell id="Sv-xLWwoJivy7uen40IY-48" value="&lt;font style=&quot;font-size: 8px&quot;&gt;Date&lt;/font&gt;" style="ellipse;whiteSpace=wrap;html=1;fontSize=10;strokeWidth=2;fillColor=#e6d0de;gradientColor=#d5739d;strokeColor=#996185;" vertex="1" parent="1">
          <mxGeometry x="-1220" y="472" width="50" height="31" as="geometry" />
        </mxCell>
        <mxCell id="Sv-xLWwoJivy7uen40IY-49" value="&lt;font style=&quot;font-size: 8px&quot;&gt;ID&lt;/font&gt;" style="ellipse;whiteSpace=wrap;html=1;fontSize=10;strokeWidth=2;fillColor=#e6d0de;strokeColor=#996185;gradientColor=#d5739d;" vertex="1" parent="1">
          <mxGeometry x="-1230" y="-551.5" width="50" height="31" as="geometry" />
        </mxCell>
        <mxCell id="Sv-xLWwoJivy7uen40IY-50" value="&lt;font style=&quot;font-size: 8px&quot;&gt;Description&lt;/font&gt;" style="ellipse;whiteSpace=wrap;html=1;fontSize=10;strokeWidth=2;fillColor=#e6d0de;strokeColor=#996185;gradientColor=#d5739d;" vertex="1" parent="1">
          <mxGeometry x="-1230" y="-489.5" width="50" height="31" as="geometry" />
        </mxCell>
        <mxCell id="Sv-xLWwoJivy7uen40IY-51" value="&lt;font style=&quot;font-size: 10px&quot;&gt;Product&lt;/font&gt;" style="rounded=1;arcSize=10;whiteSpace=wrap;html=1;align=center;strokeWidth=3;fillColor=#dae8fc;strokeColor=#6c8ebf;" vertex="1" parent="1">
          <mxGeometry x="-1360" y="-280" width="80" height="30" as="geometry" />
        </mxCell>
        <mxCell id="Sv-xLWwoJivy7uen40IY-52" value="" style="shape=link;html=1;rounded=0;fontSize=10;entryX=0.5;entryY=1;entryDx=0;entryDy=0;exitX=0.5;exitY=0;exitDx=0;exitDy=0;" edge="1" parent="1" source="Sv-xLWwoJivy7uen40IY-4" target="Sv-xLWwoJivy7uen40IY-15">
          <mxGeometry width="100" relative="1" as="geometry">
            <mxPoint x="-1510" y="-610" as="sourcePoint" />
            <mxPoint x="-1410" y="-610" as="targetPoint" />
          </mxGeometry>
        </mxCell>
        <mxCell id="Sv-xLWwoJivy7uen40IY-53" value="" style="shape=link;html=1;rounded=0;fontSize=10;entryX=0.5;entryY=1;entryDx=0;entryDy=0;exitX=0.5;exitY=0;exitDx=0;exitDy=0;" edge="1" parent="1" source="Sv-xLWwoJivy7uen40IY-1" target="Sv-xLWwoJivy7uen40IY-4">
          <mxGeometry width="100" relative="1" as="geometry">
            <mxPoint x="-1510" y="-610" as="sourcePoint" />
            <mxPoint x="-1410" y="-610" as="targetPoint" />
          </mxGeometry>
        </mxCell>
        <mxCell id="Sv-xLWwoJivy7uen40IY-54" value="" style="endArrow=none;html=1;rounded=0;fontSize=10;entryX=0.5;entryY=1;entryDx=0;entryDy=0;exitX=0.5;exitY=0;exitDx=0;exitDy=0;" edge="1" parent="1" source="Sv-xLWwoJivy7uen40IY-3" target="Sv-xLWwoJivy7uen40IY-1">
          <mxGeometry width="50" height="50" relative="1" as="geometry">
            <mxPoint x="-1480" y="-290" as="sourcePoint" />
            <mxPoint x="-1430" y="-340" as="targetPoint" />
          </mxGeometry>
        </mxCell>
        <mxCell id="Sv-xLWwoJivy7uen40IY-55" value="" style="shape=link;html=1;rounded=0;fontSize=10;entryX=0.5;entryY=1;entryDx=0;entryDy=0;exitX=0.5;exitY=0;exitDx=0;exitDy=0;" edge="1" parent="1" source="Sv-xLWwoJivy7uen40IY-51" target="Sv-xLWwoJivy7uen40IY-3">
          <mxGeometry width="100" relative="1" as="geometry">
            <mxPoint x="-1490" y="-339" as="sourcePoint" />
            <mxPoint x="-1390" y="-339" as="targetPoint" />
          </mxGeometry>
        </mxCell>
        <mxCell id="Sv-xLWwoJivy7uen40IY-56" value="" style="endArrow=none;html=1;rounded=0;fontSize=10;entryX=0.5;entryY=1;entryDx=0;entryDy=0;exitX=0.5;exitY=0;exitDx=0;exitDy=0;" edge="1" parent="1" source="Sv-xLWwoJivy7uen40IY-2" target="Sv-xLWwoJivy7uen40IY-51">
          <mxGeometry width="50" height="50" relative="1" as="geometry">
            <mxPoint x="-1480" y="-70" as="sourcePoint" />
            <mxPoint x="-1430" y="-120" as="targetPoint" />
          </mxGeometry>
        </mxCell>
        <mxCell id="Sv-xLWwoJivy7uen40IY-57" value="" style="shape=link;html=1;rounded=0;fontSize=10;entryX=0.5;entryY=1;entryDx=0;entryDy=0;exitX=0.5;exitY=0;exitDx=0;exitDy=0;" edge="1" parent="1" source="Sv-xLWwoJivy7uen40IY-16" target="Sv-xLWwoJivy7uen40IY-2">
          <mxGeometry width="100" relative="1" as="geometry">
            <mxPoint x="-1510" y="40" as="sourcePoint" />
            <mxPoint x="-1410" y="40" as="targetPoint" />
          </mxGeometry>
        </mxCell>
        <mxCell id="Sv-xLWwoJivy7uen40IY-58" value="" style="endArrow=none;html=1;rounded=0;fontSize=10;entryX=0.5;entryY=1;entryDx=0;entryDy=0;exitX=0.5;exitY=0;exitDx=0;exitDy=0;" edge="1" parent="1" source="Sv-xLWwoJivy7uen40IY-5" target="Sv-xLWwoJivy7uen40IY-16">
          <mxGeometry width="50" height="50" relative="1" as="geometry">
            <mxPoint x="-1480" y="70" as="sourcePoint" />
            <mxPoint x="-1430" y="20" as="targetPoint" />
          </mxGeometry>
        </mxCell>
        <mxCell id="Sv-xLWwoJivy7uen40IY-59" value="&lt;span style=&quot;font-size: 10px&quot;&gt;SendInfo&lt;/span&gt;" style="rhombus;whiteSpace=wrap;html=1;strokeWidth=2;fillColor=#b0e3e6;strokeColor=#0e8088;" vertex="1" parent="1">
          <mxGeometry x="-1510" y="-33.5" width="50" height="37" as="geometry" />
        </mxCell>
        <mxCell id="Sv-xLWwoJivy7uen40IY-60" value="&lt;font style=&quot;font-size: 10px&quot;&gt;Register&lt;/font&gt;" style="rhombus;whiteSpace=wrap;html=1;strokeWidth=2;fillColor=#b0e3e6;strokeColor=#0e8088;" vertex="1" parent="1">
          <mxGeometry x="-1669" y="-157" width="50" height="37" as="geometry" />
        </mxCell>
        <mxCell id="Sv-xLWwoJivy7uen40IY-61" value="&lt;font style=&quot;font-size: 10px&quot;&gt;Newsletter&lt;/font&gt;" style="rounded=1;arcSize=10;whiteSpace=wrap;html=1;align=center;strokeWidth=3;fillColor=#dae8fc;strokeColor=#6c8ebf;" vertex="1" parent="1">
          <mxGeometry x="-1684" y="-280" width="80" height="30" as="geometry" />
        </mxCell>
        <mxCell id="Sv-xLWwoJivy7uen40IY-62" value="&lt;span style=&quot;font-size: 10px&quot;&gt;Admin&lt;/span&gt;" style="rounded=1;arcSize=10;whiteSpace=wrap;html=1;align=center;strokeWidth=3;fillColor=#dae8fc;strokeColor=#6c8ebf;" vertex="1" parent="1">
          <mxGeometry x="-1684" y="-30" width="80" height="30" as="geometry" />
        </mxCell>
        <mxCell id="Sv-xLWwoJivy7uen40IY-63" value="&lt;font style=&quot;font-size: 8px&quot;&gt;fName&lt;/font&gt;" style="ellipse;whiteSpace=wrap;html=1;fontSize=10;strokeWidth=2;fillColor=#e6d0de;gradientColor=#d5739d;strokeColor=#996185;" vertex="1" parent="1">
          <mxGeometry x="-1790" y="-302" width="50" height="31" as="geometry" />
        </mxCell>
        <mxCell id="Sv-xLWwoJivy7uen40IY-64" value="&lt;font style=&quot;font-size: 8px&quot;&gt;lName&lt;/font&gt;" style="ellipse;whiteSpace=wrap;html=1;fontSize=10;strokeWidth=2;fillColor=#e6d0de;gradientColor=#d5739d;strokeColor=#996185;" vertex="1" parent="1">
          <mxGeometry x="-1790" y="-271" width="50" height="31" as="geometry" />
        </mxCell>
        <mxCell id="Sv-xLWwoJivy7uen40IY-65" value="&lt;font style=&quot;font-size: 8px&quot;&gt;Email&lt;/font&gt;" style="ellipse;whiteSpace=wrap;html=1;fontSize=10;strokeWidth=2;fillColor=#e6d0de;gradientColor=#d5739d;strokeColor=#996185;" vertex="1" parent="1">
          <mxGeometry x="-1790" y="-240" width="50" height="31" as="geometry" />
        </mxCell>
        <mxCell id="Sv-xLWwoJivy7uen40IY-66" value="&lt;font style=&quot;font-size: 8px&quot;&gt;LoginAdmin&lt;/font&gt;" style="ellipse;whiteSpace=wrap;html=1;fontSize=10;strokeWidth=2;fillColor=#e6d0de;gradientColor=#d5739d;strokeColor=#996185;" vertex="1" parent="1">
          <mxGeometry x="-1790" y="-92" width="50" height="31" as="geometry" />
        </mxCell>
        <mxCell id="Sv-xLWwoJivy7uen40IY-67" value="&lt;font style=&quot;font-size: 8px&quot;&gt;Password&lt;/font&gt;" style="ellipse;whiteSpace=wrap;html=1;fontSize=10;strokeWidth=2;fillColor=#e6d0de;gradientColor=#d5739d;strokeColor=#996185;" vertex="1" parent="1">
          <mxGeometry x="-1790" y="-61" width="50" height="31" as="geometry" />
        </mxCell>
        <mxCell id="Sv-xLWwoJivy7uen40IY-68" value="&lt;font style=&quot;font-size: 8px&quot;&gt;ID&lt;/font&gt;" style="ellipse;whiteSpace=wrap;html=1;fontSize=10;strokeWidth=2;fillColor=#e6d0de;gradientColor=#d5739d;strokeColor=#996185;" vertex="1" parent="1">
          <mxGeometry x="-1790" y="-29" width="50" height="31" as="geometry" />
        </mxCell>
        <mxCell id="Sv-xLWwoJivy7uen40IY-69" value="&lt;font style=&quot;font-size: 8px&quot;&gt;Name&lt;/font&gt;" style="ellipse;whiteSpace=wrap;html=1;fontSize=10;strokeWidth=2;fillColor=#e6d0de;gradientColor=#d5739d;strokeColor=#996185;" vertex="1" parent="1">
          <mxGeometry x="-1790" y="3.5" width="50" height="31" as="geometry" />
        </mxCell>
        <mxCell id="Sv-xLWwoJivy7uen40IY-70" value="" style="shape=link;html=1;rounded=0;fontSize=10;exitX=1;exitY=0.5;exitDx=0;exitDy=0;entryX=0;entryY=0.5;entryDx=0;entryDy=0;" edge="1" parent="1" source="Sv-xLWwoJivy7uen40IY-59" target="Sv-xLWwoJivy7uen40IY-16">
          <mxGeometry width="100" relative="1" as="geometry">
            <mxPoint x="-1460" y="20" as="sourcePoint" />
            <mxPoint x="-1360" y="20" as="targetPoint" />
          </mxGeometry>
        </mxCell>
        <mxCell id="Sv-xLWwoJivy7uen40IY-71" value="" style="endArrow=none;html=1;rounded=0;fontSize=10;exitX=1;exitY=0.5;exitDx=0;exitDy=0;entryX=0;entryY=0.5;entryDx=0;entryDy=0;" edge="1" parent="1" source="Sv-xLWwoJivy7uen40IY-62" target="Sv-xLWwoJivy7uen40IY-59">
          <mxGeometry width="50" height="50" relative="1" as="geometry">
            <mxPoint x="-1440" y="40" as="sourcePoint" />
            <mxPoint x="-1390" y="-10" as="targetPoint" />
          </mxGeometry>
        </mxCell>
        <mxCell id="Sv-xLWwoJivy7uen40IY-72" value="" style="endArrow=none;html=1;rounded=0;fontSize=10;exitX=0.5;exitY=1;exitDx=0;exitDy=0;entryX=0.5;entryY=0;entryDx=0;entryDy=0;" edge="1" parent="1" source="Sv-xLWwoJivy7uen40IY-60" target="Sv-xLWwoJivy7uen40IY-62">
          <mxGeometry width="50" height="50" relative="1" as="geometry">
            <mxPoint x="-1440" y="40" as="sourcePoint" />
            <mxPoint x="-1390" y="-10" as="targetPoint" />
          </mxGeometry>
        </mxCell>
        <mxCell id="Sv-xLWwoJivy7uen40IY-73" value="" style="endArrow=none;html=1;rounded=0;fontSize=10;entryX=0.5;entryY=1;entryDx=0;entryDy=0;exitX=0.5;exitY=0;exitDx=0;exitDy=0;" edge="1" parent="1" source="Sv-xLWwoJivy7uen40IY-60" target="Sv-xLWwoJivy7uen40IY-61">
          <mxGeometry width="50" height="50" relative="1" as="geometry">
            <mxPoint x="-1440" y="40" as="sourcePoint" />
            <mxPoint x="-1390" y="-10" as="targetPoint" />
          </mxGeometry>
        </mxCell>
        <mxCell id="Sv-xLWwoJivy7uen40IY-74" value="&lt;font style=&quot;font-size: 8px&quot;&gt;&lt;u&gt;ID&lt;/u&gt;&lt;/font&gt;" style="ellipse;whiteSpace=wrap;html=1;fontSize=10;strokeWidth=2;fillColor=#d80073;strokeColor=#A50040;fontColor=#ffffff;" vertex="1" parent="1">
          <mxGeometry x="-1790" y="-333" width="50" height="31" as="geometry" />
        </mxCell>
        <mxCell id="Sv-xLWwoJivy7uen40IY-75" value="" style="endArrow=none;html=1;rounded=0;fontSize=10;entryX=1;entryY=0.5;entryDx=0;entryDy=0;exitX=0;exitY=0.5;exitDx=0;exitDy=0;" edge="1" parent="1" source="Sv-xLWwoJivy7uen40IY-38" target="Sv-xLWwoJivy7uen40IY-15">
          <mxGeometry width="50" height="50" relative="1" as="geometry">
            <mxPoint x="-1330" y="-500" as="sourcePoint" />
            <mxPoint x="-1280" y="-550" as="targetPoint" />
          </mxGeometry>
        </mxCell>
        <mxCell id="Sv-xLWwoJivy7uen40IY-76" value="" style="endArrow=none;html=1;rounded=0;fontSize=10;entryX=0;entryY=0.5;entryDx=0;entryDy=0;exitX=1;exitY=0.5;exitDx=0;exitDy=0;" edge="1" parent="1" source="Sv-xLWwoJivy7uen40IY-15" target="Sv-xLWwoJivy7uen40IY-37">
          <mxGeometry width="50" height="50" relative="1" as="geometry">
            <mxPoint x="-1290" y="-670" as="sourcePoint" />
            <mxPoint x="-1280" y="-550" as="targetPoint" />
          </mxGeometry>
        </mxCell>
        <mxCell id="Sv-xLWwoJivy7uen40IY-77" value="" style="endArrow=none;html=1;rounded=0;fontSize=10;exitX=1;exitY=0.5;exitDx=0;exitDy=0;entryX=0;entryY=0.5;entryDx=0;entryDy=0;" edge="1" parent="1" source="Sv-xLWwoJivy7uen40IY-1" target="Sv-xLWwoJivy7uen40IY-49">
          <mxGeometry width="50" height="50" relative="1" as="geometry">
            <mxPoint x="-1280" y="-590" as="sourcePoint" />
            <mxPoint x="-1230" y="-640" as="targetPoint" />
          </mxGeometry>
        </mxCell>
        <mxCell id="Sv-xLWwoJivy7uen40IY-78" value="" style="endArrow=none;html=1;rounded=0;fontSize=10;exitX=1;exitY=0.5;exitDx=0;exitDy=0;entryX=0;entryY=0.5;entryDx=0;entryDy=0;" edge="1" parent="1" source="Sv-xLWwoJivy7uen40IY-1" target="Sv-xLWwoJivy7uen40IY-36">
          <mxGeometry width="50" height="50" relative="1" as="geometry">
            <mxPoint x="-1280" y="-590" as="sourcePoint" />
            <mxPoint x="-1230" y="-640" as="targetPoint" />
          </mxGeometry>
        </mxCell>
        <mxCell id="Sv-xLWwoJivy7uen40IY-79" value="" style="endArrow=none;html=1;rounded=0;fontSize=10;exitX=1;exitY=0.5;exitDx=0;exitDy=0;entryX=0;entryY=0.5;entryDx=0;entryDy=0;" edge="1" parent="1" source="Sv-xLWwoJivy7uen40IY-1" target="Sv-xLWwoJivy7uen40IY-50">
          <mxGeometry width="50" height="50" relative="1" as="geometry">
            <mxPoint x="-1280" y="-590" as="sourcePoint" />
            <mxPoint x="-1230" y="-640" as="targetPoint" />
          </mxGeometry>
        </mxCell>
        <mxCell id="Sv-xLWwoJivy7uen40IY-80" value="" style="endArrow=none;html=1;rounded=0;fontSize=10;exitX=1;exitY=0.5;exitDx=0;exitDy=0;entryX=0;entryY=0.5;entryDx=0;entryDy=0;" edge="1" parent="1" source="Sv-xLWwoJivy7uen40IY-51" target="Sv-xLWwoJivy7uen40IY-28">
          <mxGeometry width="50" height="50" relative="1" as="geometry">
            <mxPoint x="-1280" y="-250" as="sourcePoint" />
            <mxPoint x="-1230" y="-300" as="targetPoint" />
          </mxGeometry>
        </mxCell>
        <mxCell id="Sv-xLWwoJivy7uen40IY-81" value="" style="endArrow=none;html=1;rounded=0;fontSize=10;exitX=1;exitY=0.5;exitDx=0;exitDy=0;entryX=0;entryY=0.5;entryDx=0;entryDy=0;" edge="1" parent="1" source="Sv-xLWwoJivy7uen40IY-51" target="Sv-xLWwoJivy7uen40IY-29">
          <mxGeometry width="50" height="50" relative="1" as="geometry">
            <mxPoint x="-1280" y="-250" as="sourcePoint" />
            <mxPoint x="-1230" y="-300" as="targetPoint" />
          </mxGeometry>
        </mxCell>
        <mxCell id="Sv-xLWwoJivy7uen40IY-82" value="" style="endArrow=none;html=1;rounded=0;fontSize=10;exitX=1;exitY=0.5;exitDx=0;exitDy=0;entryX=0;entryY=0.5;entryDx=0;entryDy=0;" edge="1" parent="1" source="Sv-xLWwoJivy7uen40IY-51" target="Sv-xLWwoJivy7uen40IY-30">
          <mxGeometry width="50" height="50" relative="1" as="geometry">
            <mxPoint x="-1280" y="-250" as="sourcePoint" />
            <mxPoint x="-1230" y="-300" as="targetPoint" />
          </mxGeometry>
        </mxCell>
        <mxCell id="Sv-xLWwoJivy7uen40IY-83" value="" style="endArrow=none;html=1;rounded=0;fontSize=10;exitX=0;exitY=0.5;exitDx=0;exitDy=0;entryX=1;entryY=0.5;entryDx=0;entryDy=0;" edge="1" parent="1" source="Sv-xLWwoJivy7uen40IY-33" target="Sv-xLWwoJivy7uen40IY-51">
          <mxGeometry width="50" height="50" relative="1" as="geometry">
            <mxPoint x="-1280" y="-250" as="sourcePoint" />
            <mxPoint x="-1230" y="-300" as="targetPoint" />
          </mxGeometry>
        </mxCell>
        <mxCell id="Sv-xLWwoJivy7uen40IY-84" value="" style="endArrow=none;html=1;rounded=0;fontSize=10;exitX=1;exitY=0.5;exitDx=0;exitDy=0;entryX=0;entryY=0.5;entryDx=0;entryDy=0;" edge="1" parent="1" source="Sv-xLWwoJivy7uen40IY-51" target="Sv-xLWwoJivy7uen40IY-32">
          <mxGeometry width="50" height="50" relative="1" as="geometry">
            <mxPoint x="-1280" y="-250" as="sourcePoint" />
            <mxPoint x="-1230" y="-300" as="targetPoint" />
          </mxGeometry>
        </mxCell>
        <mxCell id="Sv-xLWwoJivy7uen40IY-85" value="" style="endArrow=none;html=1;rounded=0;fontSize=10;exitX=1;exitY=0.5;exitDx=0;exitDy=0;entryX=0;entryY=0.5;entryDx=0;entryDy=0;" edge="1" parent="1" source="Sv-xLWwoJivy7uen40IY-51" target="Sv-xLWwoJivy7uen40IY-27">
          <mxGeometry width="50" height="50" relative="1" as="geometry">
            <mxPoint x="-1280" y="-250" as="sourcePoint" />
            <mxPoint x="-1230" y="-300" as="targetPoint" />
          </mxGeometry>
        </mxCell>
        <mxCell id="Sv-xLWwoJivy7uen40IY-86" value="" style="endArrow=none;html=1;rounded=0;fontSize=10;exitX=0;exitY=0.5;exitDx=0;exitDy=0;entryX=1;entryY=0.5;entryDx=0;entryDy=0;" edge="1" parent="1" source="Sv-xLWwoJivy7uen40IY-31" target="Sv-xLWwoJivy7uen40IY-33">
          <mxGeometry width="50" height="50" relative="1" as="geometry">
            <mxPoint x="-1280" y="-250" as="sourcePoint" />
            <mxPoint x="-1230" y="-300" as="targetPoint" />
          </mxGeometry>
        </mxCell>
        <mxCell id="Sv-xLWwoJivy7uen40IY-87" value="" style="endArrow=none;html=1;rounded=0;fontSize=10;exitX=0;exitY=0.5;exitDx=0;exitDy=0;entryX=1;entryY=0.5;entryDx=0;entryDy=0;" edge="1" parent="1" source="Sv-xLWwoJivy7uen40IY-34" target="Sv-xLWwoJivy7uen40IY-33">
          <mxGeometry width="50" height="50" relative="1" as="geometry">
            <mxPoint x="-1280" y="-250" as="sourcePoint" />
            <mxPoint x="-1230" y="-300" as="targetPoint" />
          </mxGeometry>
        </mxCell>
        <mxCell id="Sv-xLWwoJivy7uen40IY-88" value="" style="endArrow=none;html=1;rounded=0;fontSize=10;exitX=0;exitY=0.5;exitDx=0;exitDy=0;entryX=1;entryY=0.5;entryDx=0;entryDy=0;" edge="1" parent="1" source="Sv-xLWwoJivy7uen40IY-35" target="Sv-xLWwoJivy7uen40IY-33">
          <mxGeometry width="50" height="50" relative="1" as="geometry">
            <mxPoint x="-1280" y="-250" as="sourcePoint" />
            <mxPoint x="-1230" y="-300" as="targetPoint" />
          </mxGeometry>
        </mxCell>
        <mxCell id="Sv-xLWwoJivy7uen40IY-89" value="" style="endArrow=none;html=1;rounded=0;fontSize=10;exitX=1;exitY=0.5;exitDx=0;exitDy=0;entryX=0;entryY=0.5;entryDx=0;entryDy=0;" edge="1" parent="1" source="Sv-xLWwoJivy7uen40IY-16" target="Sv-xLWwoJivy7uen40IY-24">
          <mxGeometry width="50" height="50" relative="1" as="geometry">
            <mxPoint x="-1280" y="-60" as="sourcePoint" />
            <mxPoint x="-1230" y="-110" as="targetPoint" />
          </mxGeometry>
        </mxCell>
        <mxCell id="Sv-xLWwoJivy7uen40IY-90" value="" style="endArrow=none;html=1;rounded=0;fontSize=10;exitX=1;exitY=0.5;exitDx=0;exitDy=0;entryX=0;entryY=0.5;entryDx=0;entryDy=0;" edge="1" parent="1" source="Sv-xLWwoJivy7uen40IY-16" target="Sv-xLWwoJivy7uen40IY-26">
          <mxGeometry width="50" height="50" relative="1" as="geometry">
            <mxPoint x="-1280" y="-60" as="sourcePoint" />
            <mxPoint x="-1230" y="-110" as="targetPoint" />
          </mxGeometry>
        </mxCell>
        <mxCell id="Sv-xLWwoJivy7uen40IY-91" value="" style="endArrow=none;html=1;rounded=0;fontSize=10;exitX=1;exitY=0.5;exitDx=0;exitDy=0;entryX=0;entryY=0.5;entryDx=0;entryDy=0;" edge="1" parent="1" source="Sv-xLWwoJivy7uen40IY-16" target="Sv-xLWwoJivy7uen40IY-25">
          <mxGeometry width="50" height="50" relative="1" as="geometry">
            <mxPoint x="-1280" y="-60" as="sourcePoint" />
            <mxPoint x="-1230" y="-110" as="targetPoint" />
          </mxGeometry>
        </mxCell>
        <mxCell id="Sv-xLWwoJivy7uen40IY-92" value="" style="endArrow=none;html=1;rounded=0;fontSize=10;exitX=1;exitY=0.5;exitDx=0;exitDy=0;entryX=0;entryY=0.5;entryDx=0;entryDy=0;" edge="1" parent="1" source="Sv-xLWwoJivy7uen40IY-18" target="Sv-xLWwoJivy7uen40IY-23">
          <mxGeometry width="50" height="50" relative="1" as="geometry">
            <mxPoint x="-1280" y="170" as="sourcePoint" />
            <mxPoint x="-1230" y="120" as="targetPoint" />
          </mxGeometry>
        </mxCell>
        <mxCell id="Sv-xLWwoJivy7uen40IY-93" value="" style="endArrow=none;html=1;rounded=0;fontSize=10;exitX=1;exitY=0.5;exitDx=0;exitDy=0;entryX=0;entryY=0.5;entryDx=0;entryDy=0;" edge="1" parent="1" source="Sv-xLWwoJivy7uen40IY-18" target="Sv-xLWwoJivy7uen40IY-21">
          <mxGeometry width="50" height="50" relative="1" as="geometry">
            <mxPoint x="-1280" y="170" as="sourcePoint" />
            <mxPoint x="-1230" y="120" as="targetPoint" />
          </mxGeometry>
        </mxCell>
        <mxCell id="Sv-xLWwoJivy7uen40IY-94" value="" style="endArrow=none;html=1;rounded=0;fontSize=10;exitX=1;exitY=0.5;exitDx=0;exitDy=0;entryX=0;entryY=0.5;entryDx=0;entryDy=0;" edge="1" parent="1" source="Sv-xLWwoJivy7uen40IY-18" target="Sv-xLWwoJivy7uen40IY-20">
          <mxGeometry width="50" height="50" relative="1" as="geometry">
            <mxPoint x="-1260" y="167" as="sourcePoint" />
            <mxPoint x="-1210" y="117" as="targetPoint" />
          </mxGeometry>
        </mxCell>
        <mxCell id="Sv-xLWwoJivy7uen40IY-95" value="" style="endArrow=none;html=1;rounded=0;fontSize=10;exitX=1;exitY=0.5;exitDx=0;exitDy=0;entryX=0;entryY=0.5;entryDx=0;entryDy=0;" edge="1" parent="1" source="Sv-xLWwoJivy7uen40IY-18" target="Sv-xLWwoJivy7uen40IY-7">
          <mxGeometry width="50" height="50" relative="1" as="geometry">
            <mxPoint x="-1270" y="181" as="sourcePoint" />
            <mxPoint x="-1220" y="131" as="targetPoint" />
          </mxGeometry>
        </mxCell>
        <mxCell id="Sv-xLWwoJivy7uen40IY-96" value="" style="endArrow=none;html=1;rounded=0;fontSize=10;exitX=1;exitY=0.5;exitDx=0;exitDy=0;entryX=0;entryY=0.5;entryDx=0;entryDy=0;" edge="1" parent="1" source="Sv-xLWwoJivy7uen40IY-18" target="Sv-xLWwoJivy7uen40IY-22">
          <mxGeometry width="50" height="50" relative="1" as="geometry">
            <mxPoint x="-1280" y="170" as="sourcePoint" />
            <mxPoint x="-1230" y="120" as="targetPoint" />
          </mxGeometry>
        </mxCell>
        <mxCell id="Sv-xLWwoJivy7uen40IY-97" value="" style="endArrow=none;html=1;rounded=0;fontSize=10;exitX=1;exitY=0.5;exitDx=0;exitDy=0;entryX=0;entryY=0.5;entryDx=0;entryDy=0;" edge="1" parent="1" source="Sv-xLWwoJivy7uen40IY-19" target="Sv-xLWwoJivy7uen40IY-41">
          <mxGeometry width="50" height="50" relative="1" as="geometry">
            <mxPoint x="-1280" y="430" as="sourcePoint" />
            <mxPoint x="-1230" y="380" as="targetPoint" />
          </mxGeometry>
        </mxCell>
        <mxCell id="Sv-xLWwoJivy7uen40IY-98" value="" style="endArrow=none;html=1;rounded=0;fontSize=10;exitX=1;exitY=0.5;exitDx=0;exitDy=0;entryX=0;entryY=0.5;entryDx=0;entryDy=0;" edge="1" parent="1" source="Sv-xLWwoJivy7uen40IY-19" target="Sv-xLWwoJivy7uen40IY-40">
          <mxGeometry width="50" height="50" relative="1" as="geometry">
            <mxPoint x="-1280" y="430" as="sourcePoint" />
            <mxPoint x="-1230" y="380" as="targetPoint" />
          </mxGeometry>
        </mxCell>
        <mxCell id="Sv-xLWwoJivy7uen40IY-99" value="" style="endArrow=none;html=1;rounded=0;fontSize=10;exitX=1;exitY=0.5;exitDx=0;exitDy=0;entryX=0;entryY=0.5;entryDx=0;entryDy=0;" edge="1" parent="1" source="Sv-xLWwoJivy7uen40IY-19" target="Sv-xLWwoJivy7uen40IY-39">
          <mxGeometry width="50" height="50" relative="1" as="geometry">
            <mxPoint x="-1280" y="430" as="sourcePoint" />
            <mxPoint x="-1230" y="380" as="targetPoint" />
          </mxGeometry>
        </mxCell>
        <mxCell id="Sv-xLWwoJivy7uen40IY-100" value="" style="endArrow=none;html=1;rounded=0;fontSize=10;exitX=1;exitY=0.5;exitDx=0;exitDy=0;entryX=0;entryY=0.5;entryDx=0;entryDy=0;" edge="1" parent="1" source="Sv-xLWwoJivy7uen40IY-19" target="Sv-xLWwoJivy7uen40IY-48">
          <mxGeometry width="50" height="50" relative="1" as="geometry">
            <mxPoint x="-1280" y="430" as="sourcePoint" />
            <mxPoint x="-1230" y="380" as="targetPoint" />
          </mxGeometry>
        </mxCell>
        <mxCell id="Sv-xLWwoJivy7uen40IY-101" value="" style="endArrow=none;html=1;rounded=0;fontSize=10;exitX=1;exitY=0.5;exitDx=0;exitDy=0;entryX=0;entryY=0.5;entryDx=0;entryDy=0;" edge="1" parent="1" source="Sv-xLWwoJivy7uen40IY-65" target="Sv-xLWwoJivy7uen40IY-61">
          <mxGeometry width="50" height="50" relative="1" as="geometry">
            <mxPoint x="-1650" y="-210" as="sourcePoint" />
            <mxPoint x="-1600" y="-260" as="targetPoint" />
          </mxGeometry>
        </mxCell>
        <mxCell id="Sv-xLWwoJivy7uen40IY-102" value="" style="endArrow=none;html=1;rounded=0;fontSize=10;exitX=1;exitY=0.5;exitDx=0;exitDy=0;entryX=0;entryY=0.5;entryDx=0;entryDy=0;" edge="1" parent="1" source="Sv-xLWwoJivy7uen40IY-64" target="Sv-xLWwoJivy7uen40IY-61">
          <mxGeometry width="50" height="50" relative="1" as="geometry">
            <mxPoint x="-1650" y="-210" as="sourcePoint" />
            <mxPoint x="-1600" y="-260" as="targetPoint" />
          </mxGeometry>
        </mxCell>
        <mxCell id="Sv-xLWwoJivy7uen40IY-103" value="" style="endArrow=none;html=1;rounded=0;fontSize=10;exitX=1;exitY=0.5;exitDx=0;exitDy=0;entryX=0;entryY=0.5;entryDx=0;entryDy=0;" edge="1" parent="1" source="Sv-xLWwoJivy7uen40IY-63" target="Sv-xLWwoJivy7uen40IY-61">
          <mxGeometry width="50" height="50" relative="1" as="geometry">
            <mxPoint x="-1650" y="-210" as="sourcePoint" />
            <mxPoint x="-1600" y="-260" as="targetPoint" />
          </mxGeometry>
        </mxCell>
        <mxCell id="Sv-xLWwoJivy7uen40IY-104" value="" style="endArrow=none;html=1;rounded=0;fontSize=10;exitX=1;exitY=0.5;exitDx=0;exitDy=0;entryX=0;entryY=0.5;entryDx=0;entryDy=0;" edge="1" parent="1" source="Sv-xLWwoJivy7uen40IY-74" target="Sv-xLWwoJivy7uen40IY-61">
          <mxGeometry width="50" height="50" relative="1" as="geometry">
            <mxPoint x="-1650" y="-210" as="sourcePoint" />
            <mxPoint x="-1600" y="-260" as="targetPoint" />
          </mxGeometry>
        </mxCell>
        <mxCell id="Sv-xLWwoJivy7uen40IY-105" value="" style="endArrow=none;html=1;rounded=0;fontSize=10;exitX=0;exitY=0.5;exitDx=0;exitDy=0;entryX=1;entryY=0.5;entryDx=0;entryDy=0;" edge="1" parent="1" source="Sv-xLWwoJivy7uen40IY-62" target="Sv-xLWwoJivy7uen40IY-66">
          <mxGeometry width="50" height="50" relative="1" as="geometry">
            <mxPoint x="-1650" y="-40" as="sourcePoint" />
            <mxPoint x="-1600" y="-90" as="targetPoint" />
          </mxGeometry>
        </mxCell>
        <mxCell id="Sv-xLWwoJivy7uen40IY-106" value="" style="endArrow=none;html=1;rounded=0;fontSize=10;exitX=1;exitY=0.5;exitDx=0;exitDy=0;entryX=0;entryY=0.5;entryDx=0;entryDy=0;" edge="1" parent="1" source="Sv-xLWwoJivy7uen40IY-67" target="Sv-xLWwoJivy7uen40IY-62">
          <mxGeometry width="50" height="50" relative="1" as="geometry">
            <mxPoint x="-1650" y="-40" as="sourcePoint" />
            <mxPoint x="-1700" y="-30" as="targetPoint" />
          </mxGeometry>
        </mxCell>
        <mxCell id="Sv-xLWwoJivy7uen40IY-107" value="" style="endArrow=none;html=1;rounded=0;fontSize=10;exitX=0.96;exitY=0.633;exitDx=0;exitDy=0;exitPerimeter=0;entryX=0;entryY=0.5;entryDx=0;entryDy=0;" edge="1" parent="1" source="Sv-xLWwoJivy7uen40IY-68" target="Sv-xLWwoJivy7uen40IY-62">
          <mxGeometry width="50" height="50" relative="1" as="geometry">
            <mxPoint x="-1650" y="-40" as="sourcePoint" />
            <mxPoint x="-1600" y="-90" as="targetPoint" />
          </mxGeometry>
        </mxCell>
        <mxCell id="Sv-xLWwoJivy7uen40IY-108" value="" style="endArrow=none;html=1;rounded=0;fontSize=10;exitX=1;exitY=0.5;exitDx=0;exitDy=0;entryX=0;entryY=0.5;entryDx=0;entryDy=0;" edge="1" parent="1" source="Sv-xLWwoJivy7uen40IY-69" target="Sv-xLWwoJivy7uen40IY-62">
          <mxGeometry width="50" height="50" relative="1" as="geometry">
            <mxPoint x="-1650" y="-40" as="sourcePoint" />
            <mxPoint x="-1600" y="-90" as="targetPoint" />
          </mxGeometry>
        </mxCell>
        <mxCell id="Sv-xLWwoJivy7uen40IY-109" value="" style="endArrow=none;html=1;rounded=0;fontSize=10;exitX=1;exitY=0.5;exitDx=0;exitDy=0;entryX=0;entryY=0.5;entryDx=0;entryDy=0;" edge="1" parent="1" source="Sv-xLWwoJivy7uen40IY-43" target="Sv-xLWwoJivy7uen40IY-17">
          <mxGeometry width="50" height="50" relative="1" as="geometry">
            <mxPoint x="-1650" y="230" as="sourcePoint" />
            <mxPoint x="-1600" y="180" as="targetPoint" />
          </mxGeometry>
        </mxCell>
        <mxCell id="Sv-xLWwoJivy7uen40IY-110" value="" style="endArrow=none;html=1;rounded=0;fontSize=10;exitX=1;exitY=0.5;exitDx=0;exitDy=0;entryX=0;entryY=0.5;entryDx=0;entryDy=0;" edge="1" parent="1" source="Sv-xLWwoJivy7uen40IY-42" target="Sv-xLWwoJivy7uen40IY-17">
          <mxGeometry width="50" height="50" relative="1" as="geometry">
            <mxPoint x="-1650" y="230" as="sourcePoint" />
            <mxPoint x="-1600" y="180" as="targetPoint" />
          </mxGeometry>
        </mxCell>
        <mxCell id="Sv-xLWwoJivy7uen40IY-111" value="" style="endArrow=none;html=1;rounded=0;fontSize=10;exitX=1;exitY=0.5;exitDx=0;exitDy=0;entryX=0;entryY=0.5;entryDx=0;entryDy=0;" edge="1" parent="1" source="Sv-xLWwoJivy7uen40IY-45" target="Sv-xLWwoJivy7uen40IY-17">
          <mxGeometry width="50" height="50" relative="1" as="geometry">
            <mxPoint x="-1650" y="230" as="sourcePoint" />
            <mxPoint x="-1600" y="180" as="targetPoint" />
          </mxGeometry>
        </mxCell>
        <mxCell id="Sv-xLWwoJivy7uen40IY-112" value="" style="endArrow=none;html=1;rounded=0;fontSize=10;exitX=1;exitY=0.5;exitDx=0;exitDy=0;entryX=0;entryY=0.5;entryDx=0;entryDy=0;" edge="1" parent="1" source="Sv-xLWwoJivy7uen40IY-46" target="Sv-xLWwoJivy7uen40IY-17">
          <mxGeometry width="50" height="50" relative="1" as="geometry">
            <mxPoint x="-1650" y="230" as="sourcePoint" />
            <mxPoint x="-1600" y="180" as="targetPoint" />
          </mxGeometry>
        </mxCell>
        <mxCell id="Sv-xLWwoJivy7uen40IY-113" value="" style="endArrow=none;html=1;rounded=0;fontSize=10;exitX=1;exitY=0.5;exitDx=0;exitDy=0;entryX=0;entryY=0.5;entryDx=0;entryDy=0;" edge="1" parent="1" source="Sv-xLWwoJivy7uen40IY-44" target="Sv-xLWwoJivy7uen40IY-17">
          <mxGeometry width="50" height="50" relative="1" as="geometry">
            <mxPoint x="-1650" y="230" as="sourcePoint" />
            <mxPoint x="-1600" y="180" as="targetPoint" />
          </mxGeometry>
        </mxCell>
        <mxCell id="Sv-xLWwoJivy7uen40IY-114" value="" style="endArrow=none;html=1;rounded=0;fontSize=10;entryX=1;entryY=0.5;entryDx=0;entryDy=0;exitX=0;exitY=0.5;exitDx=0;exitDy=0;" edge="1" parent="1" source="Sv-xLWwoJivy7uen40IY-17" target="Sv-xLWwoJivy7uen40IY-47">
          <mxGeometry width="50" height="50" relative="1" as="geometry">
            <mxPoint x="-1650" y="230" as="sourcePoint" />
            <mxPoint x="-1600" y="180" as="targetPoint" />
          </mxGeometry>
        </mxCell>
        <mxCell id="Sv-xLWwoJivy7uen40IY-115" value="" style="endArrow=none;html=1;rounded=0;fontSize=10;exitX=1;exitY=0.5;exitDx=0;exitDy=0;entryX=0;entryY=0.5;entryDx=0;entryDy=0;" edge="1" parent="1" source="Sv-xLWwoJivy7uen40IY-14" target="Sv-xLWwoJivy7uen40IY-17">
          <mxGeometry width="50" height="50" relative="1" as="geometry">
            <mxPoint x="-1650" y="230" as="sourcePoint" />
            <mxPoint x="-1600" y="180" as="targetPoint" />
          </mxGeometry>
        </mxCell>
        <mxCell id="Sv-xLWwoJivy7uen40IY-116" value="1" style="text;html=1;align=center;verticalAlign=middle;resizable=0;points=[];autosize=1;strokeColor=none;fillColor=none;" vertex="1" parent="1">
          <mxGeometry x="-1350" y="-720" width="20" height="20" as="geometry" />
        </mxCell>
        <mxCell id="Sv-xLWwoJivy7uen40IY-117" value="1" style="text;html=1;align=center;verticalAlign=middle;resizable=0;points=[];autosize=1;strokeColor=none;fillColor=none;" vertex="1" parent="1">
          <mxGeometry x="-1350" y="-470" width="20" height="20" as="geometry" />
        </mxCell>
        <mxCell id="Sv-xLWwoJivy7uen40IY-118" value="1" style="text;html=1;align=center;verticalAlign=middle;resizable=0;points=[];autosize=1;strokeColor=none;fillColor=none;" vertex="1" parent="1">
          <mxGeometry x="-1340" y="-300" width="20" height="20" as="geometry" />
        </mxCell>
        <mxCell id="Sv-xLWwoJivy7uen40IY-119" value="N" style="text;html=1;align=center;verticalAlign=middle;resizable=0;points=[];autosize=1;strokeColor=none;fillColor=none;" vertex="1" parent="1">
          <mxGeometry x="-1350" y="-550" width="20" height="20" as="geometry" />
        </mxCell>
        <mxCell id="Sv-xLWwoJivy7uen40IY-120" value="N" style="text;html=1;align=center;verticalAlign=middle;resizable=0;points=[];autosize=1;strokeColor=none;fillColor=none;" vertex="1" parent="1">
          <mxGeometry x="-1350" y="-240" width="20" height="20" as="geometry" />
        </mxCell>
        <mxCell id="Sv-xLWwoJivy7uen40IY-121" value="1" style="text;html=1;align=center;verticalAlign=middle;resizable=0;points=[];autosize=1;strokeColor=none;fillColor=none;" vertex="1" parent="1">
          <mxGeometry x="-1350" y="-60" width="20" height="20" as="geometry" />
        </mxCell>
        <mxCell id="Sv-xLWwoJivy7uen40IY-122" value="1" style="text;html=1;align=center;verticalAlign=middle;resizable=0;points=[];autosize=1;strokeColor=none;fillColor=none;" vertex="1" parent="1">
          <mxGeometry x="-1350" y="10" width="20" height="20" as="geometry" />
        </mxCell>
        <mxCell id="Sv-xLWwoJivy7uen40IY-123" value="1" style="text;html=1;align=center;verticalAlign=middle;resizable=0;points=[];autosize=1;strokeColor=none;fillColor=none;" vertex="1" parent="1">
          <mxGeometry x="-1350" y="170" width="20" height="20" as="geometry" />
        </mxCell>
        <mxCell id="Sv-xLWwoJivy7uen40IY-124" value="N" style="text;html=1;align=center;verticalAlign=middle;resizable=0;points=[];autosize=1;strokeColor=none;fillColor=none;" vertex="1" parent="1">
          <mxGeometry x="-1350" y="250" width="20" height="20" as="geometry" />
        </mxCell>
        <mxCell id="Sv-xLWwoJivy7uen40IY-125" value="1" style="text;html=1;align=center;verticalAlign=middle;resizable=0;points=[];autosize=1;strokeColor=none;fillColor=none;" vertex="1" parent="1">
          <mxGeometry x="-1350" y="420" width="20" height="20" as="geometry" />
        </mxCell>
        <mxCell id="Sv-xLWwoJivy7uen40IY-126" value="1" style="text;html=1;align=center;verticalAlign=middle;resizable=0;points=[];autosize=1;strokeColor=none;fillColor=none;" vertex="1" parent="1">
          <mxGeometry x="-1390" y="190" width="20" height="20" as="geometry" />
        </mxCell>
        <mxCell id="Sv-xLWwoJivy7uen40IY-127" value="1" style="text;html=1;align=center;verticalAlign=middle;resizable=0;points=[];autosize=1;strokeColor=none;fillColor=none;" vertex="1" parent="1">
          <mxGeometry x="-1590" y="190" width="20" height="20" as="geometry" />
        </mxCell>
        <mxCell id="Sv-xLWwoJivy7uen40IY-128" value="N" style="text;html=1;align=center;verticalAlign=middle;resizable=0;points=[];autosize=1;strokeColor=none;fillColor=none;" vertex="1" parent="1">
          <mxGeometry x="-1390" y="-40" width="20" height="20" as="geometry" />
        </mxCell>
        <mxCell id="Sv-xLWwoJivy7uen40IY-129" value="1" style="text;html=1;align=center;verticalAlign=middle;resizable=0;points=[];autosize=1;strokeColor=none;fillColor=none;" vertex="1" parent="1">
          <mxGeometry x="-1600" y="-40" width="20" height="20" as="geometry" />
        </mxCell>
        <mxCell id="Sv-xLWwoJivy7uen40IY-130" value="1" style="text;html=1;align=center;verticalAlign=middle;resizable=0;points=[];autosize=1;strokeColor=none;fillColor=none;" vertex="1" parent="1">
          <mxGeometry x="-1670" y="-60" width="20" height="20" as="geometry" />
        </mxCell>
        <mxCell id="Sv-xLWwoJivy7uen40IY-131" value="N" style="text;html=1;align=center;verticalAlign=middle;resizable=0;points=[];autosize=1;strokeColor=none;fillColor=none;" vertex="1" parent="1">
          <mxGeometry x="-1670" y="-250" width="20" height="20" as="geometry" />
        </mxCell>
      </root>
    </mxGraphModel>
  </diagram>
</mxfile>
